<?xml version="1.0" encoding="UTF-8" standalone="no"?>
<!DOCTYPE svg PUBLIC "-//W3C//DTD SVG 1.1//EN" "http://www.w3.org/Graphics/SVG/1.1/DTD/svg11.dtd">
<svg width="100%" height="100%" viewBox="0 0 233 59" version="1.1" xmlns="http://www.w3.org/2000/svg" xmlns:xlink="http://www.w3.org/1999/xlink" xml:space="preserve" xmlns:serif="http://www.serif.com/" style="fill-rule:evenodd;clip-rule:evenodd;stroke-linejoin:round;stroke-miterlimit:2;">
    <g transform="matrix(1,0,0,1,-445,-80)">
        <g transform="matrix(1,0,0,1,400,65)">
            <g transform="matrix(0.872141,0,0,1,13.6029,3)">
                <rect x="36" y="12" width="36" height="59"/>
            </g>
            <g transform="matrix(0.78125,0,0,0.862069,19.8437,13.6552)">
                <rect x="77" y="41" width="32" height="29" style="fill:rgb(24,144,255);"/>
            </g>
            <g transform="matrix(0.818855,0,0,0.902068,19.6943,-105.738)">
                <g transform="matrix(1.01053,0,0,1.06818,-1.33684,-10.3636)">
                    <path d="M129.793,178.211L129.793,153.895C129.793,153.361 129.975,152.911 130.34,152.547C130.704,152.182 131.141,152 131.648,152L135.32,152C135.828,152 136.261,152.182 136.619,152.547C136.977,152.911 137.156,153.361 137.156,153.895L137.156,174.48L154.168,174.48C154.676,174.48 155.109,174.663 155.467,175.027C155.825,175.392 156.004,175.828 156.004,176.336L156.004,178.172C156.004,178.68 155.825,179.113 155.467,179.471C155.109,179.829 154.676,180.008 154.168,180.008L131.648,180.008C131.141,180.008 130.704,179.835 130.34,179.49C129.975,179.145 129.793,178.719 129.793,178.211Z" style="fill-rule:nonzero;"/>
                </g>
                <g transform="matrix(1.01053,0,0,1.06818,-1.33684,-10.3636)">
                    <path d="M160.633,177.586C158.602,175.711 157.586,172.947 157.586,169.295C157.586,165.643 158.602,162.882 160.633,161.014C162.664,159.145 165.584,158.211 169.393,158.211C173.201,158.211 176.121,159.145 178.152,161.014C180.184,162.882 181.199,165.643 181.199,169.295C181.199,172.947 180.184,175.711 178.152,177.586C176.121,179.461 173.201,180.398 169.393,180.398C165.584,180.398 162.664,179.461 160.633,177.586ZM165.574,164.227C164.767,165.281 164.363,166.967 164.363,169.285C164.363,171.603 164.767,173.296 165.574,174.363C166.382,175.431 167.654,175.965 169.393,175.965C171.131,175.965 172.407,175.431 173.221,174.363C174.035,173.296 174.441,171.603 174.441,169.285C174.441,166.967 174.035,165.281 173.221,164.227C172.407,163.172 171.131,162.645 169.393,162.645C167.654,162.645 166.382,163.172 165.574,164.227Z" style="fill-rule:nonzero;"/>
                </g>
                <g transform="matrix(1.01053,0,0,1.06818,-1.33684,-10.3636)">
                    <path d="M182.762,160.32C182.658,159.982 182.599,159.702 182.586,159.48C182.586,158.908 182.911,158.615 183.563,158.602L187.195,158.602C187.807,158.602 188.354,158.755 188.836,159.061C189.318,159.367 189.65,159.786 189.832,160.32L193.035,170.848L196.199,160.32C196.551,159.174 197.293,158.602 198.426,158.602L201.883,158.602C203.029,158.602 203.771,159.174 204.109,160.32L207.273,170.848L210.477,160.32C210.659,159.786 210.991,159.367 211.473,159.061C211.954,158.755 212.501,158.602 213.113,158.602L216.746,158.602C217.384,158.602 217.71,158.895 217.723,159.48C217.723,159.715 217.664,159.995 217.547,160.32L211.629,178.289C211.447,178.823 211.121,179.243 210.652,179.549C210.184,179.855 209.682,180.008 209.148,180.008L206.395,180.008C205.861,180.008 205.353,179.848 204.871,179.529C204.389,179.21 204.07,178.797 203.914,178.289L200.164,166.648L196.395,178.289C196.238,178.797 195.919,179.21 195.438,179.529C194.956,179.848 194.448,180.008 193.914,180.008L191.16,180.008C190.626,180.008 190.125,179.855 189.656,179.549C189.188,179.243 188.862,178.823 188.68,178.289L182.762,160.32Z" style="fill-rule:nonzero;"/>
                </g>
                <g transform="matrix(1.01053,0,0,1.06818,-1.33684,-10.3636)">
                    <path d="M228.68,180.398C225.958,180.398 223.683,179.441 221.854,177.527C220.024,175.613 219.109,172.869 219.109,169.295C219.109,165.721 220.057,162.98 221.951,161.072C223.846,159.165 226.395,158.211 229.598,158.211C231.251,158.211 233.133,158.543 235.242,159.207L235.242,153.211C235.242,152.859 235.356,152.57 235.584,152.342C235.812,152.114 236.095,152 236.434,152L240.789,152C241.141,152 241.43,152.114 241.658,152.342C241.886,152.57 242,152.859 242,153.211L242,178.816C242,179.155 241.886,179.438 241.658,179.666C241.43,179.894 241.141,180.008 240.789,180.008L237.039,180.008C236.688,180.008 236.401,179.894 236.18,179.666C235.958,179.438 235.848,179.155 235.848,178.816L235.848,178.211C233.79,179.669 231.401,180.398 228.68,180.398ZM231.004,162.938C229.207,162.938 227.938,163.442 227.195,164.451C226.453,165.46 226.082,167.078 226.082,169.305C226.082,171.531 226.434,173.152 227.137,174.168C227.84,175.184 228.898,175.691 230.311,175.691C231.723,175.691 233.367,175.105 235.242,173.934L235.242,163.719C233.563,163.198 232.15,162.938 231.004,162.938Z" style="fill-rule:nonzero;"/>
                </g>
                <g transform="matrix(1.01053,0,0,1.06818,-1.33684,-10.3636)">
                    <path d="M248.602,177.547C246.596,175.646 245.594,172.908 245.594,169.334C245.594,165.76 246.603,163.012 248.621,161.092C250.639,159.171 253.439,158.211 257.02,158.211C260.6,158.211 263.393,159.145 265.398,161.014C267.404,162.882 268.406,165.561 268.406,169.051L268.406,170.164C268.406,170.516 268.292,170.805 268.064,171.033C267.837,171.261 267.547,171.375 267.195,171.375L252.488,171.375C252.618,172.977 253.077,174.142 253.865,174.871C254.653,175.6 255.913,175.965 257.645,175.965C259.376,175.965 260.561,175.574 261.199,174.793C261.837,174.012 262.625,173.615 263.563,173.602L266.473,173.602C266.824,173.602 267.114,173.715 267.342,173.943C267.57,174.171 267.684,174.461 267.684,174.813C267.684,178.549 264.122,180.411 257,180.398C253.406,180.398 250.607,179.448 248.602,177.547ZM252.449,167.254L261.531,167.254C261.401,164.181 259.894,162.645 257.01,162.645C254.126,162.645 252.605,164.181 252.449,167.254Z" style="fill-rule:nonzero;"/>
                </g>
                <g transform="matrix(1.01053,0,0,1.06818,-1.33684,-10.3636)">
                    <path d="M287.684,156.57L284.988,156.238C282.397,156.238 280.711,156.587 279.93,157.283C279.148,157.98 278.758,159.422 278.758,161.609L278.758,161.922L285.828,161.922C286.18,161.922 286.469,162.036 286.697,162.264C286.925,162.492 287.039,162.781 287.039,163.133L287.039,165.457C287.039,165.809 286.925,166.095 286.697,166.316C286.469,166.538 286.18,166.648 285.828,166.648L278.758,166.648L278.758,178.816C278.758,179.168 278.644,179.454 278.416,179.676C278.188,179.897 277.905,180.008 277.566,180.008L273.191,180.008C272.84,180.008 272.553,179.897 272.332,179.676C272.111,179.454 272,179.168 272,178.816L272,161.609C272,157.977 272.827,155.402 274.48,153.885C276.134,152.368 279.038,151.609 283.191,151.609C285.327,151.609 286.818,151.688 287.664,151.844C288.51,152 289.044,152.192 289.266,152.42C289.487,152.648 289.598,152.911 289.598,153.211L289.598,155.359C289.598,155.711 289.484,156.001 289.256,156.229C289.028,156.456 288.745,156.57 288.406,156.57L287.684,156.57Z" style="fill-rule:nonzero;"/>
                </g>
                <g transform="matrix(1.01053,0,0,1.06818,-1.33684,-10.3636)">
                    <path d="M295.164,182.039L297.723,182.371C299.559,182.371 300.841,181.023 301.57,178.328C299.357,178.328 297.508,177.661 296.023,176.326C294.539,174.992 293.263,172.618 292.195,169.207L289.285,159.773C289.246,159.669 289.227,159.549 289.227,159.412C289.227,159.275 289.308,159.109 289.471,158.914C289.633,158.719 289.878,158.615 290.203,158.602L294.285,158.602C294.663,158.602 295.024,158.729 295.369,158.982C295.714,159.236 295.939,159.552 296.043,159.93L298.602,168.211C299.24,170.242 299.887,171.648 300.545,172.43C301.202,173.211 301.98,173.602 302.879,173.602L306.766,159.93C306.87,159.552 307.075,159.236 307.381,158.982C307.687,158.729 308.029,158.602 308.406,158.602L312.527,158.602C312.853,158.602 313.094,158.706 313.25,158.914C313.406,159.122 313.484,159.295 313.484,159.432C313.484,159.568 313.471,159.682 313.445,159.773L308.328,178.016C307.417,181.245 306.287,183.549 304.939,184.93C303.592,186.31 301.857,187 299.734,187C297.612,187 296.111,186.922 295.232,186.766C294.354,186.609 293.803,186.417 293.582,186.189C293.361,185.962 293.25,185.698 293.25,185.398L293.25,183.25C293.25,182.898 293.361,182.609 293.582,182.381C293.803,182.153 294.09,182.039 294.441,182.039L295.164,182.039Z" style="fill-rule:nonzero;"/>
                </g>
            </g>
        </g>
    </g>
</svg>
