<?xml version="1.0" encoding="UTF-8" standalone="no"?>
<!DOCTYPE svg PUBLIC "-//W3C//DTD SVG 1.1//EN" "http://www.w3.org/Graphics/SVG/1.1/DTD/svg11.dtd">
<svg width="100%" height="100%" viewBox="0 0 82 82" version="1.1" xmlns="http://www.w3.org/2000/svg" xmlns:xlink="http://www.w3.org/1999/xlink" xml:space="preserve" xmlns:serif="http://www.serif.com/" style="fill-rule:evenodd;clip-rule:evenodd;stroke-linejoin:round;stroke-miterlimit:2;">
    <g transform="matrix(1,0,0,1,-159.142,-297.349)">
        <g id="logo_sqr">
            <g transform="matrix(0.998283,0,0,1.08028,0.273188,-23.8709)">
                <rect x="159.142" y="297.349" width="82.141" height="75.906"/>
            </g>
            <g transform="matrix(0.852193,0,0,0.922189,29.5223,29.1369)">
                <rect x="159.142" y="297.349" width="82.141" height="75.906" style="fill:white;"/>
            </g>
            <g id="R" transform="matrix(64,0,0,64,174.894,355.253)">
                <path d="M0.201,-0L0.101,-0L0.101,-0.67L0.334,-0.67C0.382,-0.67 0.424,-0.663 0.462,-0.648C0.5,-0.634 0.531,-0.611 0.553,-0.581C0.575,-0.551 0.587,-0.513 0.587,-0.467C0.587,-0.43 0.578,-0.397 0.56,-0.368C0.543,-0.339 0.519,-0.317 0.487,-0.301C0.456,-0.285 0.419,-0.277 0.376,-0.277L0.348,-0.3C0.387,-0.3 0.418,-0.293 0.442,-0.279C0.466,-0.266 0.487,-0.246 0.504,-0.219C0.521,-0.193 0.539,-0.161 0.557,-0.123L0.688,0.142L0.575,0.142L0.452,-0.113C0.439,-0.139 0.425,-0.162 0.412,-0.182C0.398,-0.201 0.381,-0.216 0.361,-0.227C0.342,-0.238 0.316,-0.244 0.285,-0.244L0.283,-0.244L0.283,-0.335L0.333,-0.335C0.362,-0.335 0.388,-0.34 0.41,-0.349C0.432,-0.359 0.45,-0.372 0.463,-0.391C0.476,-0.409 0.482,-0.431 0.482,-0.458C0.482,-0.486 0.476,-0.508 0.463,-0.525C0.45,-0.543 0.432,-0.555 0.409,-0.563C0.387,-0.572 0.362,-0.576 0.335,-0.576L0.203,-0.576L0.201,-0Z" style="fill-rule:nonzero;"/>
            </g>
        </g>
    </g>
</svg>
