<?xml version="1.0" encoding="UTF-8" standalone="no"?>
<!DOCTYPE svg PUBLIC "-//W3C//DTD SVG 1.1//EN" "http://www.w3.org/Graphics/SVG/1.1/DTD/svg11.dtd">
<svg width="100%" height="100%" viewBox="0 0 320 52" version="1.1" xmlns="http://www.w3.org/2000/svg" xmlns:xlink="http://www.w3.org/1999/xlink" xml:space="preserve" xmlns:serif="http://www.serif.com/" style="fill-rule:evenodd;clip-rule:evenodd;stroke-linejoin:round;stroke-miterlimit:2;">
    <g transform="matrix(1,0,0,1,-145.302,-122.908)">
        <g id="wordmark" transform="matrix(1,0,0,1,-337.45,-278.663)">
            <g transform="matrix(64,0,0,64,476.314,444.464)">
                <path d="M0.201,-0L0.101,-0L0.101,-0.67L0.334,-0.67C0.382,-0.67 0.424,-0.663 0.462,-0.648C0.5,-0.634 0.531,-0.611 0.553,-0.581C0.575,-0.551 0.587,-0.513 0.587,-0.467C0.587,-0.43 0.578,-0.397 0.56,-0.368C0.543,-0.339 0.519,-0.317 0.487,-0.301C0.456,-0.285 0.419,-0.277 0.376,-0.277L0.348,-0.3C0.387,-0.3 0.418,-0.293 0.442,-0.279C0.466,-0.266 0.487,-0.246 0.504,-0.219C0.521,-0.193 0.539,-0.161 0.557,-0.123L0.688,0.142L0.575,0.142L0.452,-0.113C0.439,-0.139 0.425,-0.162 0.412,-0.182C0.398,-0.201 0.381,-0.216 0.361,-0.227C0.342,-0.238 0.316,-0.244 0.285,-0.244L0.283,-0.244L0.283,-0.335L0.333,-0.335C0.362,-0.335 0.388,-0.34 0.41,-0.349C0.432,-0.359 0.45,-0.372 0.463,-0.391C0.476,-0.409 0.482,-0.431 0.482,-0.458C0.482,-0.486 0.476,-0.508 0.463,-0.525C0.45,-0.543 0.432,-0.555 0.409,-0.563C0.387,-0.572 0.362,-0.576 0.335,-0.576L0.203,-0.576L0.201,-0Z" style="fill-rule:nonzero;"/>
            </g>
            <g transform="matrix(64,0,0,-64,766.588,412.035)">
                <path d="M0.314,-0.419C0.282,-0.419 0.256,-0.411 0.234,-0.396C0.213,-0.38 0.197,-0.359 0.186,-0.334C0.175,-0.308 0.17,-0.28 0.17,-0.25L0.17,-0.012L0.071,-0.012L0.071,-0.26C0.071,-0.307 0.08,-0.35 0.099,-0.389C0.117,-0.427 0.145,-0.458 0.181,-0.48C0.205,-0.496 0.234,-0.506 0.266,-0.511C0.266,-0.511 0.266,-0.511 0.266,-0.511L0.266,-0.649L0.365,-0.649L0.365,-0.511C0.365,-0.511 0.365,-0.511 0.366,-0.511C0.398,-0.506 0.425,-0.496 0.45,-0.481C0.486,-0.458 0.514,-0.428 0.533,-0.389C0.552,-0.351 0.561,-0.308 0.561,-0.261L0.561,-0.012L0.462,-0.012L0.462,-0.249C0.462,-0.279 0.457,-0.307 0.446,-0.333C0.435,-0.359 0.418,-0.38 0.396,-0.396C0.375,-0.411 0.347,-0.419 0.314,-0.419Z" style="fill-rule:nonzero;"/>
            </g>
            <g transform="matrix(1.05928,0,0,1,-44.3659,22.8897)">
                <g transform="matrix(60.4186,0,0,64,529.245,421.346)">
                    <path d="M0.3,0.011C0.25,0.011 0.206,0 0.167,-0.022C0.127,-0.045 0.097,-0.075 0.074,-0.114C0.052,-0.153 0.04,-0.198 0.04,-0.248C0.04,-0.295 0.051,-0.338 0.071,-0.377C0.092,-0.416 0.121,-0.446 0.158,-0.47C0.196,-0.493 0.239,-0.504 0.288,-0.504C0.337,-0.504 0.38,-0.493 0.416,-0.472C0.451,-0.45 0.479,-0.421 0.499,-0.384C0.518,-0.347 0.528,-0.305 0.528,-0.26L0.528,-0.22L0.117,-0.22L0.135,-0.26C0.133,-0.225 0.139,-0.194 0.152,-0.167C0.165,-0.139 0.185,-0.117 0.21,-0.101C0.236,-0.085 0.265,-0.077 0.299,-0.077C0.329,-0.077 0.357,-0.084 0.382,-0.097C0.408,-0.11 0.428,-0.13 0.442,-0.157L0.518,-0.118C0.497,-0.076 0.467,-0.044 0.429,-0.022C0.391,0 0.348,0.011 0.3,0.011ZM0.14,-0.284L0.429,-0.284C0.428,-0.31 0.421,-0.333 0.408,-0.353C0.396,-0.373 0.379,-0.388 0.358,-0.399C0.338,-0.41 0.314,-0.415 0.287,-0.415C0.26,-0.415 0.236,-0.41 0.215,-0.398C0.194,-0.386 0.177,-0.371 0.165,-0.351C0.152,-0.331 0.144,-0.309 0.14,-0.284Z" style="fill-rule:nonzero;"/>
                </g>
                <g transform="matrix(60.4186,0,0,64,562.536,421.346)">
                    <path d="M0.247,0.011C0.202,0.011 0.162,0.002 0.128,-0.016C0.093,-0.034 0.067,-0.061 0.048,-0.098L0.124,-0.14C0.137,-0.116 0.153,-0.098 0.173,-0.088C0.192,-0.078 0.216,-0.073 0.243,-0.073C0.262,-0.073 0.279,-0.075 0.294,-0.08C0.309,-0.085 0.32,-0.093 0.329,-0.103C0.337,-0.113 0.342,-0.125 0.342,-0.139C0.342,-0.157 0.335,-0.17 0.321,-0.178C0.308,-0.187 0.29,-0.193 0.269,-0.198C0.248,-0.203 0.226,-0.208 0.202,-0.214C0.177,-0.219 0.155,-0.226 0.134,-0.236C0.113,-0.246 0.095,-0.26 0.082,-0.278C0.068,-0.296 0.061,-0.32 0.061,-0.351C0.061,-0.38 0.069,-0.405 0.085,-0.428C0.1,-0.45 0.122,-0.467 0.149,-0.48C0.177,-0.493 0.208,-0.5 0.244,-0.5C0.274,-0.5 0.302,-0.495 0.325,-0.487C0.349,-0.478 0.369,-0.466 0.387,-0.452C0.404,-0.437 0.418,-0.42 0.428,-0.401L0.352,-0.358C0.342,-0.379 0.327,-0.394 0.308,-0.403C0.289,-0.412 0.268,-0.416 0.246,-0.416C0.231,-0.416 0.217,-0.413 0.204,-0.408C0.191,-0.403 0.18,-0.396 0.172,-0.387C0.164,-0.378 0.16,-0.367 0.16,-0.353C0.16,-0.337 0.167,-0.324 0.181,-0.316C0.194,-0.307 0.212,-0.3 0.233,-0.295C0.254,-0.29 0.276,-0.284 0.301,-0.279C0.325,-0.274 0.347,-0.266 0.368,-0.256C0.389,-0.247 0.407,-0.233 0.42,-0.215C0.434,-0.197 0.441,-0.172 0.441,-0.141C0.441,-0.11 0.432,-0.083 0.414,-0.061C0.397,-0.038 0.373,-0.02 0.344,-0.008C0.314,0.005 0.282,0.011 0.247,0.011Z" style="fill-rule:nonzero;"/>
                </g>
                <g transform="matrix(60.4186,0,0,64,591.174,421.346)">
                    <path d="M0.302,0.012C0.252,0.012 0.208,-0 0.169,-0.023C0.129,-0.047 0.098,-0.078 0.075,-0.117C0.052,-0.156 0.04,-0.199 0.04,-0.246C0.04,-0.293 0.052,-0.336 0.075,-0.375C0.098,-0.414 0.13,-0.445 0.169,-0.468C0.209,-0.491 0.253,-0.502 0.302,-0.502C0.351,-0.502 0.396,-0.491 0.435,-0.468C0.474,-0.445 0.505,-0.414 0.528,-0.375C0.551,-0.336 0.562,-0.293 0.562,-0.246C0.562,-0.199 0.551,-0.156 0.528,-0.117C0.505,-0.078 0.474,-0.047 0.435,-0.023C0.395,-0 0.351,0.012 0.302,0.012ZM0.302,-0.082C0.332,-0.082 0.36,-0.089 0.384,-0.104C0.408,-0.119 0.428,-0.139 0.442,-0.164C0.456,-0.188 0.463,-0.216 0.463,-0.245C0.463,-0.275 0.456,-0.302 0.442,-0.327C0.428,-0.352 0.408,-0.372 0.384,-0.387C0.36,-0.401 0.332,-0.409 0.302,-0.409C0.271,-0.409 0.244,-0.401 0.219,-0.387C0.195,-0.372 0.175,-0.352 0.161,-0.327C0.147,-0.302 0.139,-0.275 0.139,-0.245C0.139,-0.216 0.147,-0.188 0.161,-0.164C0.175,-0.139 0.195,-0.119 0.219,-0.104C0.244,-0.089 0.271,-0.082 0.302,-0.082Z" style="fill-rule:nonzero;"/>
                </g>
                <g transform="matrix(60.4186,0,0,64,625.613,421.346)">
                    <path d="M0.314,-0.407C0.282,-0.407 0.255,-0.399 0.234,-0.383C0.213,-0.367 0.197,-0.347 0.186,-0.321C0.175,-0.296 0.17,-0.268 0.17,-0.237L0.17,-0L0.071,-0L0.071,-0.247C0.071,-0.295 0.08,-0.338 0.099,-0.376C0.117,-0.415 0.145,-0.445 0.181,-0.468C0.217,-0.491 0.261,-0.502 0.314,-0.502C0.368,-0.502 0.413,-0.491 0.45,-0.468C0.486,-0.446 0.514,-0.415 0.533,-0.377C0.552,-0.339 0.561,-0.296 0.561,-0.248L0.561,-0L0.462,-0L0.462,-0.236C0.462,-0.267 0.457,-0.295 0.446,-0.321C0.435,-0.347 0.418,-0.367 0.396,-0.383C0.375,-0.399 0.347,-0.407 0.314,-0.407Z" style="fill-rule:nonzero;"/>
                </g>
                <g transform="matrix(60.4186,0,0,64,661.985,421.346)">
                    <path d="M0.286,0.012C0.239,0.012 0.197,-0 0.16,-0.023C0.123,-0.047 0.094,-0.078 0.072,-0.117C0.051,-0.156 0.04,-0.199 0.04,-0.246C0.04,-0.293 0.052,-0.336 0.075,-0.375C0.098,-0.414 0.129,-0.445 0.168,-0.468C0.207,-0.491 0.252,-0.502 0.301,-0.502C0.351,-0.502 0.395,-0.491 0.434,-0.468C0.474,-0.446 0.505,-0.415 0.528,-0.377C0.551,-0.338 0.562,-0.295 0.562,-0.246L0.562,-0L0.468,-0L0.468,-0.183L0.502,-0.209C0.502,-0.167 0.493,-0.13 0.474,-0.097C0.456,-0.064 0.431,-0.037 0.399,-0.018C0.367,0.002 0.329,0.012 0.286,0.012ZM0.301,-0.082C0.332,-0.082 0.359,-0.089 0.384,-0.104C0.408,-0.119 0.428,-0.139 0.442,-0.164C0.456,-0.188 0.463,-0.216 0.463,-0.245C0.463,-0.275 0.456,-0.302 0.442,-0.327C0.428,-0.352 0.408,-0.372 0.384,-0.387C0.359,-0.401 0.332,-0.409 0.301,-0.409C0.27,-0.409 0.243,-0.401 0.218,-0.387C0.194,-0.372 0.175,-0.352 0.161,-0.327C0.146,-0.302 0.139,-0.275 0.139,-0.245C0.139,-0.216 0.146,-0.188 0.161,-0.164C0.175,-0.139 0.194,-0.119 0.218,-0.104C0.243,-0.089 0.27,-0.082 0.301,-0.082Z" style="fill-rule:nonzero;"/>
                </g>
                <g transform="matrix(60.4186,0,0,64,697.632,421.346)">
                    <path d="M0.314,-0.407C0.282,-0.407 0.255,-0.399 0.234,-0.383C0.213,-0.367 0.197,-0.347 0.186,-0.321C0.175,-0.296 0.17,-0.268 0.17,-0.237L0.17,-0L0.071,-0L0.071,-0.247C0.071,-0.295 0.08,-0.338 0.099,-0.376C0.117,-0.415 0.145,-0.445 0.181,-0.468C0.217,-0.491 0.261,-0.502 0.314,-0.502C0.368,-0.502 0.413,-0.491 0.45,-0.468C0.486,-0.446 0.514,-0.415 0.533,-0.377C0.552,-0.339 0.561,-0.296 0.561,-0.248L0.561,-0L0.462,-0L0.462,-0.236C0.462,-0.267 0.457,-0.295 0.446,-0.321C0.435,-0.347 0.418,-0.367 0.396,-0.383C0.375,-0.399 0.347,-0.407 0.314,-0.407Z" style="fill-rule:nonzero;"/>
                </g>
                <g transform="matrix(60.4186,0,0,64,734.004,421.346)">
                    <path d="M0.296,0.011C0.261,0.011 0.228,0.005 0.197,-0.008C0.166,-0.022 0.138,-0.04 0.115,-0.064C0.092,-0.087 0.074,-0.114 0.06,-0.146C0.047,-0.177 0.04,-0.21 0.04,-0.246C0.04,-0.281 0.047,-0.314 0.06,-0.345C0.074,-0.376 0.092,-0.404 0.115,-0.427C0.138,-0.451 0.166,-0.469 0.197,-0.482C0.228,-0.496 0.261,-0.502 0.296,-0.502C0.342,-0.502 0.384,-0.491 0.422,-0.471C0.461,-0.45 0.492,-0.417 0.514,-0.373L0.432,-0.327C0.417,-0.354 0.398,-0.374 0.375,-0.388C0.351,-0.402 0.325,-0.408 0.296,-0.408C0.267,-0.408 0.241,-0.401 0.217,-0.386C0.194,-0.372 0.175,-0.352 0.161,-0.327C0.146,-0.303 0.139,-0.275 0.139,-0.246C0.139,-0.216 0.146,-0.189 0.161,-0.164C0.175,-0.139 0.194,-0.119 0.217,-0.105C0.241,-0.09 0.267,-0.082 0.296,-0.082C0.325,-0.082 0.351,-0.089 0.375,-0.103C0.398,-0.117 0.417,-0.137 0.432,-0.163L0.514,-0.118C0.492,-0.074 0.461,-0.041 0.422,-0.02C0.384,0 0.342,0.011 0.296,0.011Z" style="fill-rule:nonzero;"/>
                </g>
            </g>
        </g>
    </g>
</svg>
