<?xml version="1.0" encoding="UTF-8"?><svg id="Layer_1" xmlns="http://www.w3.org/2000/svg" xmlns:xlink="http://www.w3.org/1999/xlink" viewBox="0 0 21.09 18.78"><defs><style>.cls-1{fill:url(#linear-gradient);}.cls-2{fill:url(#linear-gradient-2);}</style><linearGradient id="linear-gradient" x1="0" y1="11.92" x2="12.71" y2="11.92" gradientTransform="translate(21.09) rotate(-180) scale(1 -1)" gradientUnits="userSpaceOnUse"><stop offset="0" stop-color="#2668e2"/><stop offset="1" stop-color="#80d6d1"/></linearGradient><linearGradient id="linear-gradient-2" x1="15.93" y1="2.79" x2="21.09" y2="2.79" xlink:href="#linear-gradient"/></defs><path class="cls-1" d="m8.38,11.93c2.56,1.81,4.73,4.15,6.35,6.86,1.63-2.71,3.8-5.05,6.36-6.86-2.56-1.81-4.73-4.16-6.36-6.87-1.61,2.71-3.78,5.06-6.35,6.87Z"/><path class="cls-2" d="m0,2.79c1.04.73,1.92,1.68,2.58,2.79.66-1.1,1.54-2.05,2.58-2.79-1.04-.73-1.92-1.69-2.58-2.79C1.92,1.1,1.04,2.06,0,2.79Z"/></svg>