<?xml version="1.0" encoding="UTF-8" standalone="no"?>
<!DOCTYPE svg PUBLIC "-//W3C//DTD SVG 1.1//EN" "http://www.w3.org/Graphics/SVG/1.1/DTD/svg11.dtd">
<svg width="100%" height="100%" viewBox="0 0 57 55" version="1.1" xmlns="http://www.w3.org/2000/svg" xmlns:xlink="http://www.w3.org/1999/xlink" xml:space="preserve" xmlns:serif="http://www.serif.com/" style="fill-rule:evenodd;clip-rule:evenodd;stroke-linejoin:round;stroke-miterlimit:2;">
    <g transform="matrix(1,0,0,1,-10.3034,-2.06239)">
        <g transform="matrix(0.910063,0,0,0.910063,-868.413,-160.041)">
            <g transform="matrix(1,0,0,1,877.025,-498.176)">
                <path d="M150.509,688.586C150.509,681.805 145.003,676.299 138.222,676.299L100.817,676.299C94.036,676.299 88.531,681.805 88.531,688.586L88.531,724.013C88.531,730.794 94.036,736.299 100.817,736.299L138.222,736.299C145.003,736.299 150.509,730.794 150.509,724.013L150.509,688.586ZM139.959,708.612L123.476,708.612L123.476,725.096L139.959,725.096L139.959,708.612ZM119.782,686.189L99.08,686.189L99.08,725.09L119.782,725.09L119.782,686.189Z"/>
            </g>
        </g>
    </g>
</svg>
